<?xml version="1.0" encoding="iso-8859-1"?>
<!-- Generator: Adobe Illustrator 19.0.0, SVG Export Plug-In . SVG Version: 6.00 Build 0)  -->
<svg version="1.1" id="Layer_1" xmlns="http://www.w3.org/2000/svg" xmlns:xlink="http://www.w3.org/1999/xlink" x="0px" y="0px"
	 viewBox="0 0 512 512" style="enable-background:new 0 0 512 512;" xml:space="preserve">
<g>
	<g>
		<g>
			<rect x="56.096" y="273.856" transform="matrix(0.7071 -0.7071 0.7071 0.7071 -180.5959 127.7162)" width="15.546" height="16"/>
			
				<rect x="73.074" y="290.816" transform="matrix(0.707 -0.7072 0.7072 0.707 -187.6369 144.7267)" width="15.546" height="15.999"/>
			<rect x="89.811" y="308.029" transform="matrix(0.7071 0.7071 -0.7071 0.7071 251.954 23.3337)" width="16" height="15.546"/>
			
				<rect x="224.096" y="273.863" transform="matrix(0.7071 -0.7071 0.7071 0.7071 -131.3944 246.5131)" width="15.546" height="16"/>
			
				<rect x="241.065" y="290.809" transform="matrix(0.707 -0.7072 0.7072 0.707 -138.4115 263.5276)" width="15.546" height="15.999"/>
			<rect x="257.811" y="308.023" transform="matrix(0.7071 0.7071 -0.7071 0.7071 301.1555 -95.4621)" width="16" height="15.546"/>
			<rect x="392.096" y="273.859" transform="matrix(0.7071 -0.7071 0.7071 0.7071 -82.1854 365.3049)" width="15.546" height="16"/>
			
				<rect x="409.058" y="290.798" transform="matrix(0.707 -0.7072 0.7072 0.707 -89.1832 382.3319)" width="15.546" height="15.999"/>
			
				<rect x="425.818" y="308.024" transform="matrix(0.7071 0.7071 -0.7071 0.7071 350.3644 -214.2611)" width="16" height="15.546"/>
			<path d="M391.773,412.422v-44.599c12.87,6.22,27.154,9.525,42.018,9.531c0.016,0,0.028,0,0.045,0
				c25.747,0,49.776-9.848,67.661-27.733l5.496-5.497L444.768,281.9l28.484-28.484l-10.993-10.993l-28.484,28.484L371.55,208.68
				l-5.497,5.496c-17.896,17.897-27.745,41.942-27.734,67.706c0.012,25.758,9.875,49.8,27.773,67.697
				c3.188,3.189,6.581,6.111,10.134,8.78v54.063H223.773v-44.599c12.87,6.22,27.154,9.525,42.018,9.531c0.016,0,0.028,0,0.045,0
				c25.747,0,49.776-9.848,67.661-27.733l5.496-5.497L276.768,281.9l28.484-28.484l-10.994-10.993l-28.484,28.484l-62.225-62.226
				l-5.497,5.496c-17.896,17.897-27.745,41.942-27.734,67.706c0.012,25.758,9.875,49.8,27.773,67.697
				c3.189,3.189,6.581,6.111,10.134,8.78v54.063H55.774v-44.599c12.87,6.22,27.154,9.525,42.018,9.531c0.016,0,0.028,0,0.045,0
				c25.747,0,49.776-9.848,67.661-27.733l5.496-5.497L108.769,281.9l28.484-28.484l-10.993-10.993l-28.484,28.484L35.55,208.68
				l-5.497,5.496c-17.896,17.897-27.745,41.942-27.734,67.706c0.012,25.758,9.875,49.8,27.773,67.697
				c3.188,3.189,6.581,6.111,10.134,8.78v54.063H0v15.547h512v-15.547H391.773z M17.865,281.876
				c-0.008-18.942,6.318-36.756,17.954-50.939l112.917,112.918c-14.174,11.63-31.972,17.953-50.9,17.953c-0.012,0-0.026,0-0.038,0
				c-21.608-0.009-41.748-8.256-56.712-23.22C26.121,323.623,17.875,303.483,17.865,281.876z M185.865,281.876
				c-0.008-18.942,6.318-36.756,17.954-50.939l112.917,112.918c-14.174,11.63-31.972,17.953-50.9,17.953c-0.012,0-0.026,0-0.038,0
				c-21.608-0.009-41.748-8.256-56.712-23.22C194.122,323.623,185.876,303.483,185.865,281.876z M353.866,281.876
				c-0.008-18.942,6.318-36.756,17.954-50.939l112.917,112.918c-14.174,11.63-31.972,17.953-50.9,17.953c-0.012,0-0.026,0-0.038,0
				c-21.608-0.009-41.748-8.256-56.712-23.22C362.122,323.623,353.876,303.483,353.866,281.876z"/>
			<rect x="64" y="444.228" width="72.001" height="15.547"/>
			<rect x="136.001" y="468.232" width="111.997" height="15.547"/>
			<rect x="247.999" y="492.226" width="47.997" height="15.547"/>
			<rect x="32" y="484.225" width="32" height="15.547"/>
			<rect x="303.997" y="452.23" width="47.997" height="15.547"/>
			<rect x="351.995" y="468.232" width="72.001" height="15.547"/>
			<rect x="464.003" y="492.226" width="47.997" height="15.547"/>
			<path d="M456,115.774c30.753,0,55.774-25.021,55.774-55.774c0-30.753-25.021-55.773-55.774-55.773s-55.774,25.021-55.774,55.774
				C400.227,90.755,425.247,115.774,456,115.774z M456,19.774c22.181,0,40.227,18.045,40.227,40.227S478.182,100.229,456,100.229
				c-22.182,0-40.227-18.045-40.227-40.227S433.818,19.774,456,19.774z"/>
			
				<rect x="238.815" y="-22.081" transform="matrix(0.41 0.9121 -0.9121 0.41 227.5018 -171.8578)" width="15.547" height="223.998"/>
			<rect x="114.77" y="137.679" transform="matrix(0.41 0.9121 -0.9121 0.41 205.1727 -25.819)" width="15.547" height="16"/>
			<rect x="272.003" y="124.228" width="16" height="15.547"/>
			<rect x="336.003" y="156.223" width="16" height="15.547"/>
			<rect x="375.999" y="100.225" width="16" height="15.547"/>
			<rect x="208.003" y="20.228" width="16" height="15.547"/>
			<rect x="119.999" y="76.231" width="16" height="15.547"/>
			<rect x="24.004" y="28.223" width="16" height="15.547"/>
			<rect x="16" y="132.23" width="16.001" height="15.547"/>
			<rect x="88.004" y="188.228" width="16" height="15.547"/>
			<rect x="200.001" y="172.226" width="16.001" height="15.547"/>
			<rect x="152.004" y="388.23" width="16" height="15.547"/>
			<rect x="344.004" y="372.227" width="16" height="15.547"/>
			<rect x="479.995" y="188.228" width="16.001" height="15.547"/>
			<rect x="415.995" y="172.226" width="16" height="15.547"/>
		</g>
	</g>
</g>
<g>
</g>
<g>
</g>
<g>
</g>
<g>
</g>
<g>
</g>
<g>
</g>
<g>
</g>
<g>
</g>
<g>
</g>
<g>
</g>
<g>
</g>
<g>
</g>
<g>
</g>
<g>
</g>
<g>
</g>
</svg>
