<?xml version="1.0" encoding="iso-8859-1"?>
<!-- Generator: Adobe Illustrator 19.0.0, SVG Export Plug-In . SVG Version: 6.00 Build 0)  -->
<svg version="1.1" id="Layer_1" xmlns="http://www.w3.org/2000/svg" xmlns:xlink="http://www.w3.org/1999/xlink" x="0px" y="0px"
	 viewBox="0 0 512.001 512.001" style="enable-background:new 0 0 512.001 512.001;" xml:space="preserve">
<g>
	<g>
		<g>
			<path d="M450.921,61.068c-45.324-45.322-119.07-45.322-164.395,0.001c-45.323,45.324-45.323,119.071,0,164.395
				c22.663,22.661,52.43,33.992,82.197,33.992c29.769,0,59.535-11.331,82.197-33.992h0.001
				C496.245,180.14,496.245,106.393,450.921,61.068z M439.768,214.31c-39.173,39.173-102.913,39.172-142.086,0.001
				c-39.173-39.174-39.173-102.914-0.001-142.087c19.59-19.589,45.313-29.38,71.045-29.38c25.725,0,51.459,9.796,71.043,29.38
				C478.941,111.397,478.941,175.137,439.768,214.31z"/>
			<path d="M470.077,41.913c-55.886-55.883-146.817-55.885-202.706,0c-54.013,54.015-55.818,140.765-5.421,196.974l-20.118,20.118
				l11.153,11.154l20.119-20.118c27.13,24.325,61.373,36.492,95.619,36.492c36.705,0,73.41-13.972,101.353-41.914
				C525.963,188.734,525.963,97.8,470.077,41.913z M458.923,233.465c-49.737,49.737-130.662,49.734-180.396,0
				c-49.736-49.736-49.736-130.661,0-180.396c24.867-24.868,57.533-37.302,90.198-37.302c32.665,0,65.33,12.433,90.197,37.302
				C508.659,102.804,508.659,183.729,458.923,233.465z"/>
			
				<rect x="207.55" y="269.468" transform="matrix(-0.7071 -0.7071 0.7071 -0.7071 204.4349 639.389)" width="54.178" height="15.774"/>
			<path d="M0.009,475.288l36.712,36.712l202.057-203.354l-36.064-36.064L0.009,475.288z M36.685,489.656l-14.369-14.368
				l180.398-180.397l13.791,13.791L36.685,489.656z"/>
		</g>
	</g>
</g>
<g>
</g>
<g>
</g>
<g>
</g>
<g>
</g>
<g>
</g>
<g>
</g>
<g>
</g>
<g>
</g>
<g>
</g>
<g>
</g>
<g>
</g>
<g>
</g>
<g>
</g>
<g>
</g>
<g>
</g>
</svg>
