<?xml version="1.0" encoding="iso-8859-1"?>
<!-- Generator: Adobe Illustrator 19.0.0, SVG Export Plug-In . SVG Version: 6.00 Build 0)  -->
<svg version="1.1" id="Layer_1" xmlns="http://www.w3.org/2000/svg" xmlns:xlink="http://www.w3.org/1999/xlink" x="0px" y="0px"
	 viewBox="0 0 512 512" style="enable-background:new 0 0 512 512;" xml:space="preserve">
<g>
	<g>
		<g>
			<rect x="496.294" y="23.791" width="15.706" height="128.377"/>
			<rect y="63.814" width="15.706" height="47.347"/>
			<path d="M264.157,47.956H136.081v16.01H24.015v47.725h112.066v16.009h128.076v16.01h223.981v-15.706H279.863V47.653h208.275
				V31.947H264.157V47.956z M136.081,95.985H39.72V79.672h96.361V95.985z M264.157,111.994H151.787V63.662h112.371V111.994z"/>
			<polygon points="160.095,208.347 160.095,248.219 175.8,248.219 175.8,224.053 224.132,224.053 224.132,248.219 239.838,248.219 
				239.838,208.347 207.82,208.347 207.82,152.011 231.985,152.011 231.985,136.305 167.948,136.305 167.948,152.011 
				192.114,152.011 192.114,208.347 			"/>
			<polygon points="253.656,256.376 146.278,256.376 74.236,472.504 55.881,472.504 55.881,488.209 103.91,488.209 103.91,472.504 
				90.79,472.504 157.599,272.081 242.335,272.081 309.142,472.504 296.024,472.504 296.024,488.209 344.052,488.209 
				344.052,472.504 325.698,472.504 			"/>
			<polygon points="207.82,280.238 192.114,280.238 192.114,472.504 175.952,472.504 175.952,488.209 223.981,488.209 
				223.981,472.504 207.82,472.504 			"/>
			<rect x="296.028" y="95.982" width="16.01" height="15.706"/>
			<rect x="328.046" y="95.982" width="16.009" height="15.706"/>
			<rect x="360.065" y="95.982" width="16.009" height="15.706"/>
			<rect x="191.963" y="232.358" width="16.009" height="15.706"/>
		</g>
	</g>
</g>
<g>
</g>
<g>
</g>
<g>
</g>
<g>
</g>
<g>
</g>
<g>
</g>
<g>
</g>
<g>
</g>
<g>
</g>
<g>
</g>
<g>
</g>
<g>
</g>
<g>
</g>
<g>
</g>
<g>
</g>
</svg>
